<?xml version="1.0" encoding="UTF-8" standalone="no"?>
<svg
   id="Layer_1"
   viewBox="40 40 120 120"
   version="1.1"
   sodipodi:docname="favicon.svg"
   width="200"
   height="200"
   inkscape:version="1.4 (e7c3feb100, 2024-10-09)"
   xmlns:inkscape="http://www.inkscape.org/namespaces/inkscape"
   xmlns:sodipodi="http://sodipodi.sourceforge.net/DTD/sodipodi-0.dtd"
   xmlns="http://www.w3.org/2000/svg"
   xmlns:svg="http://www.w3.org/2000/svg">
  <sodipodi:namedview
     id="namedview3"
     pagecolor="#ffffff"
     bordercolor="#000000"
     borderopacity="0.25"
     inkscape:showpageshadow="2"
     inkscape:pageopacity="0.0"
     inkscape:pagecheckerboard="true"
     inkscape:deskcolor="#d1d1d1"
     inkscape:zoom="5.59"
     inkscape:cx="99.910555"
     inkscape:cy="100"
     inkscape:window-width="5120"
     inkscape:window-height="1327"
     inkscape:window-x="0"
     inkscape:window-y="41"
     inkscape:window-maximized="1"
     inkscape:current-layer="Layer_1" />
  <defs
     id="defs1">
    <style
       id="style1">.cls-1{fill:#eadbca;}.cls-2{fill:#101023;}.cls-3{fill:#0a7de5;}.cls-4{fill:#d82727;}</style>
  </defs>
  <path
     class="cls-1"
     d="m 100.74,114.25 v 0 c -0.81,0 -1.47,-0.66 -1.47,-1.47 v -27.03 0 c 0.81,0 1.47,0.66 1.47,1.47 z"
     id="path1" />
  <path
     class="cls-4"
     d="M 147.87,55.78 H 99.03 c -6.87,0 -13.44,-2.13 -19.01,-6.15 L 67.07,40.26 c -1.63,-1.18 -3.91,-0.01 -3.91,2 v 23.52 h 8.09 v -12.5 l 5.71,4.13 c 5.82,4.21 12.81,6.47 19.99,6.47 h 45.29 v 59.56 H 95.31 c -13.28,0 -24.05,-10.77 -24.05,-24.05 V 78.64 h -8.09 v 20.75 c 0,17.75 14.39,32.14 32.14,32.14 h 52.56 c 1.36,0 2.46,-1.1 2.46,-2.46 V 58.25 c 0,-1.36 -1.1,-2.46 -2.46,-2.46 z"
     id="path2" />
  <rect
     class="cls-2"
     x="63.169998"
     y="65.779999"
     width="8.0900002"
     height="2.7"
     id="rect2" />
  <rect
     class="cls-2"
     x="128.74001"
     y="131.53"
     width="8.0900002"
     height="2.7"
     id="rect3" />
  <path
     class="cls-3"
     d="m 128.74,146.73 -5.71,-4.13 c -5.82,-4.21 -12.81,-6.47 -19.99,-6.47 H 57.75 V 76.57 h 46.93 c 13.28,0 24.05,10.77 24.05,24.05 v 20.75 h 8.09 v -20.75 c 0,-17.75 -14.39,-32.14 -32.14,-32.14 H 52.12 c -1.36,0 -2.46,1.1 -2.46,2.46 v 70.82 c 0,1.36 1.1,2.46 2.46,2.46 h 48.84 c 6.87,0 13.44,2.13 19.01,6.15 l 12.95,9.37 c 1.63,1.18 3.91,0.01 3.91,-2 v -23.52 h -8.09 v 12.5 z"
     id="path3" />
</svg>
