<?xml version="1.0" encoding="UTF-8"?><svg id="Layer_1" xmlns="http://www.w3.org/2000/svg" viewBox="0 0 200 200"><defs><style>.cls-1{fill:#eadbca;}.cls-2{fill:#101023;}.cls-3{fill:#0a7de5;}.cls-4{fill:#0060a8;}.cls-5{fill:#d82727;}</style></defs><path class="cls-2" d="M36.66,133.62V60.31l15.08-.97.32,2.11-7.78,1.3c-.6.05-1.04.32-1.34.81s-.45,1.08-.45,1.78v63.25c0,.7.15,1.3.45,1.78.3.49.74.76,1.34.81l7.78,1.3-.32,2.11-15.08-.97Z"/><path class="cls-2" d="M147.94,132.4l7.78-1.3c.59-.06,1.04-.33,1.34-.81.3-.49.45-1.08.45-1.78v-63.25c0-.7-.15-1.3-.45-1.78s-.74-.76-1.34-.81l-7.78-1.3.33-2.11,15.08.97v73.31l-15.08.97-.33-2.11Z"/><path class="cls-1" d="M100.53,110.2h0c-.58,0-1.05-.47-1.05-1.05v-19.34h0c.58,0,1.05.47,1.05,1.05v19.34Z"/><path class="cls-5" d="M134.25,68.37h-34.94c-4.92,0-9.62-1.52-13.6-4.4l-9.27-6.7c-1.17-.84-2.79,0-2.79,1.43v16.83h5.79v-8.95l4.08,2.95c4.16,3.01,9.17,4.63,14.3,4.63h32.4v42.61h-33.58c-9.5,0-17.21-7.7-17.21-17.21v-14.85h-5.79v14.85c0,12.7,10.3,23,23,23h37.61c.97,0,1.76-.79,1.76-1.76v-50.66c0-.97-.79-1.76-1.76-1.76Z"/><rect class="cls-4" x="120.56" y="122.55" width="5.79" height="1.93"/><path class="cls-3" d="M120.56,133.43l-4.08-2.95c-4.16-3.01-9.17-4.63-14.3-4.63h-32.4v-42.61h33.58c9.5,0,17.21,7.7,17.21,17.21v14.85h5.79v-14.85c0-12.7-10.3-23-23-23h-37.61c-.97,0-1.76.79-1.76,1.76v50.66c0,.97.79,1.76,1.76,1.76h34.94c4.92,0,9.62,1.52,13.6,4.4l9.27,6.7c1.17.84,2.79,0,2.79-1.43v-16.83h-5.79v8.95Z"/></svg>