<?xml version="1.0" encoding="UTF-8" standalone="no"?>
<svg
   xmlns:dc="http://purl.org/dc/elements/1.1/"
   xmlns:cc="http://creativecommons.org/ns#"
   xmlns:rdf="http://www.w3.org/1999/02/22-rdf-syntax-ns#"
   xmlns:svg="http://www.w3.org/2000/svg"
   xmlns="http://www.w3.org/2000/svg"
   xmlns:sodipodi="http://sodipodi.sourceforge.net/DTD/sodipodi-0.dtd"
   xmlns:inkscape="http://www.inkscape.org/namespaces/inkscape"
   data-name="Layer 1"
   width="1280"
   height="640"
   viewBox="0 0 1280 639.99993"
   version="1.1"
   id="svg142"
   sodipodi:docname="contextive_name.svg"
   inkscape:version="0.92.5 (2060ec1f9f, 2020-04-08)"
   inkscape:export-filename="/home/chris/Contextive/contextive/images/contextive_banner.png"
   inkscape:export-xdpi="96"
   inkscape:export-ydpi="96">
  <metadata
     id="metadata148">
    <rdf:RDF>
      <cc:Work
         rdf:about="">
        <dc:format>image/svg+xml</dc:format>
        <dc:type
           rdf:resource="http://purl.org/dc/dcmitype/StillImage" />
        <dc:title />
      </cc:Work>
    </rdf:RDF>
  </metadata>
  <defs
     id="defs146" />
  <sodipodi:namedview
     pagecolor="#ffffff"
     bordercolor="#666666"
     borderopacity="1"
     objecttolerance="10"
     gridtolerance="10"
     guidetolerance="10"
     inkscape:pageopacity="1"
     inkscape:pageshadow="2"
     inkscape:window-width="1920"
     inkscape:window-height="980"
     id="namedview144"
     showgrid="false"
     fit-margin-top="40"
     fit-margin-left="40"
     fit-margin-right="40"
     fit-margin-bottom="40"
     inkscape:zoom="0.48024291"
     inkscape:cx="582.54678"
     inkscape:cy="427.28696"
     inkscape:window-x="0"
     inkscape:window-y="27"
     inkscape:window-maximized="1"
     inkscape:current-layer="svg142"
     units="px" />
  <path
     d="m 742.61813,63.352983 a 30.25466,30.25466 0 0 0 7.58334,-20.703582 c -0.0171,-0.753904 1.15377,-0.740737 1.17085,0.01224 a 31.469437,31.469437 0 0 1 -7.93493,21.52792 c -0.50174,0.564077 -1.31826,-0.275579 -0.81926,-0.836568 z"
     id="path32"
     inkscape:connector-curvature="0"
     style="fill:#ffffff;stroke-width:0.64450604"
     inkscape:export-xdpi="96"
     inkscape:export-ydpi="96" />
  <path
     d="M 837.0525,236.73749 812.18165,103.57024 a 9.8639006,9.8639006 0 0 0 -9.36732,-7.981892 q -0.30166,-0.007 -0.60334,0 l -16.94254,0.607772 -1.82342,0.0671 -8.45563,0.3039 -1.82341,0.0626 -5.43894,0.19665 -109.67293,3.93737 c -0.16535,0.008 -0.33519,0.008 -0.50054,0.005 l -24.57585,-0.51394 -9.09471,-0.1877 -0.2905,-0.005 -6.71267,-0.14301 -58.49224,-1.21562 -15.50792,-0.32624 -7.64673,-0.15641 -1.83233,-0.0402 -8.71932,-0.17878 -1.82787,-0.0402 -8.92043,-0.18325 -1.82789,-0.0402 -9.80085,-0.2056 -1.53738,-0.0312 -8.74167,-0.18322 -1.38095,-0.0268 h -0.20107 a 9.8370956,9.8370956 0 0 0 -9.66231,8.2143 l -22.49327,138.1861 a 9.7847424,9.7847424 0 0 0 9.65783,11.36058 h 129.17631 a 8.9514734,8.9514734 0 0 1 5.28253,1.74297 l 2.44908,1.81447 a 9.8740001,9.8740001 0 0 0 5.82329,1.92173 h 76.1275 a 9.7261052,9.7261052 0 0 0 6.9227,-2.86921 8.8800686,8.8800686 0 0 1 5.8099,-2.58762 l 128.40761,-6.76637 a 9.7854577,9.7854577 0 0 0 9.10813,-11.5706 z"
     id="path52"
     inkscape:connector-curvature="0"
     style="fill:#3f3d56;fill-opacity:1;stroke-width:0.64450604"
     inkscape:export-xdpi="96"
     inkscape:export-ydpi="96" />
  <path
     d="M 816.70001,233.11747 802.83667,95.767098 c -0.005,-0.058 -0.0134,-0.12065 -0.0223,-0.17875 a 8.7218423,8.7218423 0 0 0 -3.0301,-5.63556 l -29.82263,-24.84401 a 7.9117885,7.9117885 0 0 0 -4.59878,-1.836847 c -13.6443,-0.875962 -83.00997,-4.120558 -108.61372,18.10453 a 7.048318,7.048318 0 0 1 -5.72944,1.644648 7.1769614,7.1769614 0 0 1 -4.96971,-3.333996 29.370217,29.370217 0 0 0 -8.37965,-8.545016 44.576171,44.576171 0 0 0 -4.6926,-2.846835 c -1.43461,-0.755298 -2.99434,-1.488235 -4.69262,-2.194347 -1.46141,-0.607824 -3.02114,-1.193286 -4.69259,-1.751923 -8.66569,-2.896009 -20.24974,-5.059082 -35.73086,-5.783081 -6.42217,-0.3039 -13.40298,-0.344113 -20.74578,-0.125125 -6.70373,0.196649 -13.82755,0.603324 -21.17037,1.211124 l -0.10722,0.0048 -49.68356,30.332108 a 8.6563606,8.6563606 0 0 0 -4.02668,6.417732 l -0.10277,0.9117 -15.77609,140.96141 a 8.8413338,8.8413338 0 0 0 2.03346,6.70821 8.1111471,8.1111471 0 0 0 6.16297,2.87813 h 122.4189 a 7.2042885,7.2042885 0 0 1 4.47363,1.58654 l 5.34507,4.28144 a 8.0811389,8.0811389 0 0 0 4.90269,1.77873 l 53.82643,0.88042 h 0.1296 a 8.0267426,8.0267426 0 0 0 3.88368,-1.01002 l 10.38183,-5.76522 a 7.167861,7.167861 0 0 1 3.08372,-0.89383 l 116.01911,-6.12718 a 8.0638017,8.0638017 0 0 0 5.85013,-2.99434 8.7447546,8.7447546 0 0 0 1.93963,-6.48474 z"
     id="path54"
     inkscape:connector-curvature="0"
     style="fill:#e6e6e6;stroke-width:0.64450604"
     inkscape:export-xdpi="96"
     inkscape:export-ydpi="96" />
  <path
     d="m 776.20354,208.34769 -1.62415,-21.37827 -6.8511,-90.1406 -1.01832,-13.334843 A 14.130035,14.130035 0 0 0 752.94333,70.404059 C 727.83982,69.759556 682.3828,70.893885 660.07644,85.839988 A 12.366718,12.366718 0 0 1 643.8929,83.84201 35.967793,35.967793 0 0 0 632.97497,75.689015 61.581308,61.581308 0 0 0 623.59096,71.912207 q -14.16298,-4.524434 -35.7443,-5.497635 l -34.14593,-0.199797 h -0.058 a 9.3081109,9.3081109 0 0 0 -9.28089,8.720159 l -1.48236,23.440686 -6.47729,102.79872 A 14.162718,14.162718 0 0 0 550.34287,216.23 c 57.31592,0.85074 82.35497,12.94813 93.27291,22.93797 a 14.157729,14.157729 0 0 0 17.3372,1.40502 c 19.81857,-12.98035 52.76571,-16.58959 78.99067,-17.1503 8.03054,-0.16757 15.42948,-0.058 21.62962,0.16113 a 14.16208,14.16208 0 0 0 14.63028,-15.23613 z"
     id="path56"
     inkscape:connector-curvature="0"
     style="fill:#ffffff;stroke-width:0.64450604"
     inkscape:export-xdpi="96"
     inkscape:export-ydpi="96" />
  <path
     d="m 491.66314,238.16434 c -0.0214,0 -0.0437,-6.5e-4 -0.0651,-0.002 a 0.91231763,0.91231763 0 0 1 -0.84603,-0.9744 l 9.86164,-139.24759 a 0.90179929,0.90179929 0 0 1 0.97439,-0.84602 0.91232407,0.91232407 0 0 1 0.84603,0.9744 l -9.86165,139.24693 a 0.9121565,0.9121565 0 0 1 -0.90932,0.84868 z"
     id="path58"
     inkscape:connector-curvature="0"
     style="fill:#ffffff;stroke-width:0.64450604"
     inkscape:export-xdpi="96"
     inkscape:export-ydpi="96" />
  <path
     d="m 503.53065,232.68701 c -0.0213,0 -0.0437,-6.4e-4 -0.0651,-0.002 a 0.91231763,0.91231763 0 0 1 -0.84602,-0.97441 l 9.86166,-139.247182 a 0.90179929,0.90179929 0 0 1 0.9744,-0.84601 0.91232407,0.91232407 0 0 1 0.84602,0.9744 l -9.86164,139.247182 a 0.9121565,0.9121565 0 0 1 -0.90932,0.84869 z"
     id="path60"
     inkscape:connector-curvature="0"
     style="fill:#ffffff;stroke-width:0.64450604"
     inkscape:export-xdpi="96"
     inkscape:export-ydpi="96" />
  <path
     d="m 514.48529,229.94836 c -0.0213,0 -0.0437,-6.4e-4 -0.0651,-0.002 a 0.91231763,0.91231763 0 0 1 -0.84603,-0.97441 l 9.86166,-139.247172 a 0.90179929,0.90179929 0 0 1 0.9744,-0.84602 0.91231763,0.91231763 0 0 1 0.84603,0.97439 l -9.86166,139.247182 a 0.91216939,0.91216939 0 0 1 -0.90932,0.84869 z"
     id="path62"
     inkscape:connector-curvature="0"
     style="fill:#ffffff;stroke-width:0.64450604"
     inkscape:export-xdpi="96"
     inkscape:export-ydpi="96" />
  <path
     d="m 525.43991,224.47105 c -0.0213,0 -0.0437,-6.4e-4 -0.0651,-0.002 a 0.91232407,0.91232407 0 0 1 -0.84602,-0.97439 l 9.86166,-139.247182 a 0.90179929,0.90179929 0 0 1 0.97441,-0.846026 0.91232407,0.91232407 0 0 1 0.84601,0.974406 l -9.86164,139.247172 a 0.91216939,0.91216939 0 0 1 -0.90932,0.8487 z"
     id="path64"
     inkscape:connector-curvature="0"
     style="fill:#ffffff;stroke-width:0.64450604"
     inkscape:export-xdpi="96"
     inkscape:export-ydpi="96" />
  <path
     d="m 805.69407,239.07722 c 0.0213,0 0.0437,-6.5e-4 0.0651,-0.002 a 0.91231763,0.91231763 0 0 0 0.84602,-0.9744 L 796.74347,98.85339 a 0.90180573,0.90180573 0 0 0 -0.97439,-0.84604 0.91231763,0.91231763 0 0 0 -0.84603,0.97441 l 9.86167,139.24717 a 0.91216939,0.91216939 0 0 0 0.90932,0.8487 z"
     id="path66"
     inkscape:connector-curvature="0"
     style="fill:#ffffff;stroke-width:0.64450604"
     inkscape:export-xdpi="96"
     inkscape:export-ydpi="96" />
  <path
     d="m 793.82656,230.86125 c 0.0213,0 0.0437,-6.5e-4 0.0651,-0.002 a 0.91231763,0.91231763 0 0 0 0.84602,-0.9744 L 784.876,90.637578 a 0.90179929,0.90179929 0 0 0 -0.9744,-0.84603 0.91231763,0.91231763 0 0 0 -0.84601,0.9744 l 9.86168,139.247182 a 0.91216939,0.91216939 0 0 0 0.90929,0.8487 z"
     id="path68"
     inkscape:connector-curvature="0"
     style="fill:#ffffff;stroke-width:0.64450604"
     inkscape:export-xdpi="96"
     inkscape:export-ydpi="96" />
  <path
     d="m 782.87192,221.73239 c 0.0213,0 0.0437,-6.5e-4 0.0651,-0.002 a 0.91231763,0.91231763 0 0 0 0.84603,-0.9744 L 773.9214,81.508304 a 0.90179285,0.90179285 0 0 0 -0.9744,-0.846012 0.91231763,0.91231763 0 0 0 -0.84602,0.974394 l 9.86165,139.247174 a 0.9121565,0.9121565 0 0 0 0.90933,0.8487 z"
     id="path70"
     inkscape:connector-curvature="0"
     style="fill:#ffffff;stroke-width:0.64450604"
     inkscape:export-xdpi="96"
     inkscape:export-ydpi="96" />
  <path
     d="m 558.84087,97.67075 c 20.57719,-6.565122 43.53388,-4.827022 63.02784,4.42187 a 82.991109,82.991109 0 0 1 15.66249,9.64674 c 1.37118,1.07615 3.32243,-0.84882 1.93652,-1.93653 a 89.707048,89.707048 0 0 0 -62.97145,-18.466232 86.169406,86.169406 0 0 0 -18.38348,3.69333 c -1.67271,0.53364 -0.9578,3.178702 0.72804,2.640822 z"
     id="path72"
     inkscape:connector-curvature="0"
     style="fill:#3f3d56;stroke-width:0.64450604"
     inkscape:export-xdpi="96"
     inkscape:export-ydpi="96" />
  <path
     d="m 672.0702,112.80174 c 19.1314,-10.05573 42.04081,-12.24853 62.8418,-6.54048 a 82.832167,82.832167 0 0 1 17.08714,6.79387 c 1.55444,0.82944 2.93948,-1.53383 1.38225,-2.36474 -19.82488,-10.57844 -43.62274,-13.01362 -65.2718,-7.11677 a 86.142653,86.142653 0 0 0 -17.42163,6.86337 c -1.56069,0.82032 -0.17804,3.18487 1.38225,2.36475 z"
     id="path74"
     inkscape:connector-curvature="0"
     style="fill:#3f3d56;stroke-width:0.64450604"
     inkscape:export-xdpi="96"
     inkscape:export-ydpi="96" />
  <path
     d="m 672.0702,131.05947 c 19.1314,-10.05575 42.04081,-12.24855 62.8418,-6.54049 a 82.831831,82.831831 0 0 1 17.08714,6.79387 c 1.55444,0.82944 2.93948,-1.53383 1.38225,-2.36475 -19.82488,-10.57844 -43.62274,-13.01362 -65.2718,-7.11676 a 86.142653,86.142653 0 0 0 -17.42163,6.86334 c -1.56069,0.82031 -0.17804,3.18485 1.38225,2.36475 z"
     id="path76"
     inkscape:connector-curvature="0"
     style="fill:#3f3d56;stroke-width:0.64450604"
     inkscape:export-xdpi="96"
     inkscape:export-ydpi="96" />
  <path
     d="m 754.05144,148.33774 a 1.1737744,1.1737744 0 0 0 -0.6748,-1.13515 89.811832,89.811832 0 0 0 -51.70356,-9.68465 c -0.11169,0.008 -0.21454,0.0268 -0.33519,0.0358 h -0.005 a 2.7420638,2.7420638 0 0 0 -0.32626,0.0492 86.507624,86.507624 0 0 0 -30.3187,9.34498 1.381995,1.381995 0 0 0 -0.67485,1.18881 v 34.05936 a 1.3819627,1.3819627 0 0 0 1.73404,1.31394 c 0.4201,-0.12065 0.8402,-0.23685 1.26925,-0.34858 a 135.74617,135.74617 0 0 1 29.22822,-4.57196 c 0.21006,-0.008 0.4201,-0.0179 0.63908,-0.0268 a 153.11474,153.11474 0 0 1 24.11105,0.867 5.0268635,5.0268635 0 0 1 0.50055,0.0537 c 0.41115,0.0447 0.83125,0.0938 1.24244,0.1475 0.16535,0.0179 0.32176,0.0358 0.47371,0.0626 1.59992,0.20109 3.1865,0.42903 4.77751,0.67485 q 3.44568,0.54971 6.89143,1.22456 c 0.14301,0.0268 0.2905,0.0626 0.43796,0.0894 3.68705,0.73292 7.35624,1.58207 11.00753,2.52058 a 1.3875119,1.3875119 0 0 0 1.73403,-1.32285 v -34.48847 a 0.11327194,0.11327194 0 0 0 -0.008,-0.0537 z"
     id="path78"
     inkscape:connector-curvature="0"
     style="fill:#3f3d56;stroke-width:0.64450604"
     inkscape:export-xdpi="96"
     inkscape:export-ydpi="96" />
  <path
     d="m 703.82006,139.37512 a 4.5038855,4.5038855 0 0 0 -3.2269,-0.28349 3.8244279,3.8244279 0 0 0 -2.14934,2.02135 9.7212006,9.7212006 0 0 0 -0.70746,2.78046 c -0.0567,0.37633 -0.0603,0.85118 0.318,1.02686 a 0.80101789,0.80101789 0 0 0 0.81287,-0.16094 2.4022287,2.4022287 0 0 0 0.47595,-0.66406 7.2282963,7.2282963 0 0 1 6.10599,-3.31971 l 1.01107,0.40303 a 11.975032,11.975032 0 0 0 -2.64018,-1.8035 z"
     id="path80"
     inkscape:connector-curvature="0"
     style="fill:#ff6582;stroke-width:0.64450604"
     inkscape:export-xdpi="96"
     inkscape:export-ydpi="96" />
  <path
     d="m 714.76284,147.22531 c -0.78462,-1.15509 -1.71439,-2.3884 -3.17043,-2.76557 -1.68622,-0.43678 -3.41839,0.43092 -4.88766,1.28716 a 142.78458,142.78458 0 0 0 -12.67512,8.31265 l 0.005,0.0449 9.45834,-0.58059 c 2.2779,-0.13983 4.63404,-0.29893 6.64706,-1.25808 a 6.2681435,6.2681435 0 0 1 2.37409,-0.88403 3.9678885,3.9678885 0 0 1 2.75002,1.32492 c 4.35901,4.13169 5.62042,10.45002 10.5108,14.08002 a 132.82109,132.82109 0 0 0 -11.01179,-19.56136 z"
     id="path82"
     inkscape:connector-curvature="0"
     style="fill:#ffffff;stroke-width:0.64450604"
     inkscape:export-xdpi="96"
     inkscape:export-ydpi="96" />
  <path
     d="m 702.88565,178.56199 c -0.21885,0.01 -0.42902,0.0182 -0.63897,0.0274 -1.52444,-0.54771 -3.08544,-1.03156 -4.66472,-1.45157 -1.02254,-0.2738 -2.06313,-0.5203 -3.10393,-0.73023 -1.17767,-0.25552 -2.36425,-0.45644 -3.55103,-0.62995 a 56.790494,56.790494 0 0 0 -6.81923,-0.57501 0.12396429,0.12396429 0 1 1 0,-0.2465 c 0.29196,0 0.58414,0.01 0.86719,0.0274 a 56.866559,56.866559 0 0 1 6.82837,0.66641 c 1.17766,0.19168 2.35531,0.4199 3.52383,0.67554 1.05888,0.23736 2.11774,0.50213 3.15855,0.7942 q 2.23184,0.6298 4.39994,1.44228 z"
     id="path84"
     inkscape:connector-curvature="0"
     style="fill:#ffffff;stroke-width:0.64450604"
     inkscape:export-xdpi="96"
     inkscape:export-ydpi="96" />
  <path
     d="m 729.21336,179.69396 c -0.15511,-0.0274 -0.31046,-0.0457 -0.47471,-0.0639 -0.62985,-0.52029 -1.26882,-1.01329 -1.93521,-1.49715 -0.83086,-0.60253 -1.68893,-1.16849 -2.56526,-1.69795 a 45.547951,45.547951 0 0 0 -6.06169,-3.08556 60.445463,60.445463 0 0 0 -10.24255,-3.23165 101.91954,101.91954 0 0 0 -12.11379,-1.89875 c -4.07166,-0.42001 -8.16138,-0.67553 -12.25107,-0.93117 -0.17338,-0.01 -0.18254,-0.26466 0,-0.25564 0.51126,0.0365 1.02253,0.0639 1.54272,0.10047 4.1354,0.25563 8.2708,0.54783 12.37879,1.0134 a 94.371635,94.371635 0 0 1 12.09573,2.09957 58.830195,58.830195 0 0 1 9.91403,3.40505 45.078002,45.078002 0 0 1 5.33112,2.83904 c 1.08627,0.68467 2.13623,1.41503 3.14026,2.19096 0.42013,0.32863 0.84002,0.65736 1.24163,1.01329 z"
     id="path86"
     inkscape:connector-curvature="0"
     style="fill:#ffffff;stroke-width:0.64450604"
     inkscape:export-xdpi="96"
     inkscape:export-ydpi="96" />
  <path
     d="m 727.49725,179.48402 a 4.9596479,4.9596479 0 0 0 -0.50214,-0.0549 c -0.19167,-0.15513 -0.3927,-0.30121 -0.59328,-0.44729 a 41.75016,41.75016 0 0 0 -4.39102,-2.74779 46.511526,46.511526 0 0 0 -4.24506,-2.03572 59.633011,59.633011 0 0 0 -10.24254,-3.23155 101.9011,101.9011 0 0 0 -12.11402,-1.89877 c -4.07143,-0.41999 -8.16115,-0.67553 -12.25086,-0.93116 -0.17337,-0.0183 -0.17337,-0.26477 0,-0.25564 0.52041,0.0366 1.03145,0.0639 1.54273,0.10035 4.13539,0.25552 8.2708,0.54771 12.37879,1.0133 a 94.351507,94.351507 0 0 1 12.09573,2.09967 58.523952,58.523952 0 0 1 9.91379,3.40504 c 1.20507,0.54772 2.38274,1.14112 3.53298,1.78923 a 37.372971,37.372971 0 0 1 4.8749,3.1951 z"
     id="path88"
     inkscape:connector-curvature="0"
     style="fill:#ffffff;stroke-width:0.64450604"
     inkscape:export-xdpi="96"
     inkscape:export-ydpi="96" />
  <path
     d="m 741.31824,181.68409 c -0.14598,-0.0274 -0.29219,-0.0639 -0.43817,-0.0913 -0.16425,-0.17351 -0.31959,-0.35603 -0.47472,-0.53868 q -1.17743,-1.35563 -2.3279,-2.73865 c -3.02148,-3.59672 -5.88808,-7.30309 -8.59017,-11.08235 q -3.47816,-4.84747 -6.60015,-9.88662 c -0.99512,-1.58841 -1.9537,-3.19509 -2.89378,-4.82007 q -1.09553,-1.88951 -2.13623,-3.7884 c -0.20081,-0.36518 -0.39251,-0.73035 -0.58415,-1.09554 -0.44753,-0.85816 -0.89484,-1.72534 -1.36934,-2.57428 a 7.2749715,7.2749715 0 0 0 -2.20936,-2.62911 3.2326554,3.2326554 0 0 0 -1.57013,-0.53857 4.7473477,4.7473477 0 0 0 -2.26394,0.58415 73.763967,73.763967 0 0 0 -14.35964,8.80937 69.403632,69.403632 0 0 0 -11.66671,11.52977 c -0.1094,0.12781 -0.34702,0.01 -0.2465,-0.12783 0.41075,-0.51115 0.83065,-1.02243 1.25054,-1.52455 a 69.980626,69.980626 0 0 1 11.03686,-10.48902 c 0.01,-0.01 0.0274,-0.0183 0.0366,-0.0274 0.35593,-0.28305 0.71208,-0.55685 1.07714,-0.82161 a 74.71219,74.71219 0 0 1 7.04768,-4.60098 q 1.8621,-1.08183 3.80666,-2.054 c 0.31937,-0.16425 0.64811,-0.32863 0.97664,-0.48386 0.32873,-0.16425 0.65746,-0.31936 0.98597,-0.47471 a 5.3739364,5.3739364 0 0 1 2.09055,-0.57501 c 2.53785,-0.0365 3.84319,2.51958 4.74696,4.24483 0.28305,0.53868 0.57524,1.07724 0.85828,1.61582 1.09542,2.03572 2.23653,4.06241 3.42333,6.06158 0.72099,1.24152 1.46961,2.47399 2.22742,3.69724 1.08627,1.74364 2.19996,3.4689 3.35935,5.18523 a 0.00895219,0.00895219 0 0 0 0.01,0.01 c 1.34192,2.02659 2.73866,4.01661 4.18109,5.99762 q 3.71083,5.08015 7.77781,9.93219 1.39671,1.67051 2.83892,3.29547 z"
     id="path90"
     inkscape:connector-curvature="0"
     style="fill:#ffffff;stroke-width:0.64450604"
     inkscape:export-xdpi="96"
     inkscape:export-ydpi="96" />
  <path
     d="m 754.06209,177.65825 v 0.4199 c -0.90375,-1.05888 -1.82578,-2.10871 -2.73866,-3.15855 q -0.57502,-0.65727 -1.15025,-1.31451 -2.43744,-2.76607 -4.90211,-5.51387 c -1.65237,-1.82577 -3.30475,-3.65155 -4.9754,-5.46817 -0.40162,-0.43816 -0.80323,-0.87633 -1.21399,-1.3145 a 9.450508,9.450508 0 0 0 -1.06823,-1.02254 3.9637443,3.9637443 0 0 0 -1.30536,-0.7212 3.27246,3.27246 0 0 0 -1.67959,-0.0182 c -0.63005,0.14609 -1.23247,0.37431 -1.84403,0.56599 -0.63007,0.20994 -1.25076,0.41075 -1.88061,0.61156 -1.25989,0.41086 -2.51043,0.82174 -3.77033,1.23248 a 0.12477637,0.12477637 0 0 1 -0.16425,-0.0731 0.12725772,0.12725772 0 0 1 0.0914,-0.17337 c 0.31045,-0.10035 0.62984,-0.2008 0.94943,-0.30132 1.26881,-0.41989 2.52849,-0.83064 3.79753,-1.24141 0.62983,-0.21005 1.25967,-0.41086 1.88974,-0.61167 a 5.6477033,5.6477033 0 0 1 1.82577,-0.36517 4.130478,4.130478 0 0 1 2.68382,1.25979 c 0.39251,0.36517 0.74863,0.74851 1.10457,1.1411 q 0.62982,0.68468 1.2599,1.36933 2.53304,2.76607 5.02978,5.55031 2.50598,2.79349 4.96626,5.59599 0.17789,0.20544 0.35593,0.41087 c 0.92207,1.04053 1.82582,2.09049 2.73871,3.14022 z"
     id="path92"
     inkscape:connector-curvature="0"
     style="fill:#ffffff;stroke-width:0.64450604"
     inkscape:export-xdpi="96"
     inkscape:export-ydpi="96" />
  <path
     d="m 708.74929,141.36666 -0.25252,0.11036 a 6.8904591,6.8904591 0 0 0 -5.56615,-3.36981 c -3.73742,-0.26549 -7.02049,2.22521 -7.31894,5.55178 a 5.4979458,5.4979458 0 0 0 1.11135,3.82701 l -0.23439,0.13857 a 5.7256305,5.7256305 0 0 1 -1.15744,-3.9855 c 0.31057,-3.46417 3.72976,-6.05798 7.62185,-5.78153 a 7.1752857,7.1752857 0 0 1 5.79624,3.50906 z"
     id="path94"
     inkscape:connector-curvature="0"
     style="fill:#ff6582;stroke-width:0.64450604"
     inkscape:export-xdpi="96"
     inkscape:export-ydpi="96" />
  <path
     d="m 690.28165,148.09707 a 6.7406566,6.7406566 0 0 0 -6.13892,0.39077 96.773831,96.773831 0 0 1 9.96166,2.0695 c -1.35889,-0.70882 -2.42188,-1.81941 -3.82274,-2.46027 z"
     id="path96"
     inkscape:connector-curvature="0"
     style="fill:#ffffff;stroke-width:0.64450604"
     inkscape:export-xdpi="96"
     inkscape:export-ydpi="96" />
  <path
     d="m 684.12386,148.48483 -0.36937,0.26723 c 0.12493,-0.0936 0.25482,-0.18123 0.38826,-0.26425 z"
     id="path98"
     inkscape:connector-curvature="0"
     style="fill:#ffffff;stroke-width:0.64450604"
     inkscape:export-xdpi="96"
     inkscape:export-ydpi="96" />
  <path
     d="m 737.87183,161.96797 a 3.0861269,3.0861269 0 0 0 -1.3294,-0.98789 l -0.51902,0.0182 a 54.818016,54.818016 0 0 0 15.68027,15.95636 q -6.91594,-7.49333 -13.83185,-14.98669 z"
     id="path100"
     inkscape:connector-curvature="0"
     style="fill:#ffffff;stroke-width:0.64450604"
     inkscape:export-xdpi="96"
     inkscape:export-ydpi="96" />
  <path
     d="m 695.2475,150.03472 c -0.14724,-0.1461 -0.29355,-0.29219 -0.44175,-0.43826 a 12.819767,12.819767 0 0 0 -4.02724,-2.94691 6.4454858,6.4454858 0 0 0 -2.44783,-0.50507 7.7242694,7.7242694 0 0 0 -2.54161,0.49338 c -0.38266,0.13608 -0.75689,0.29051 -1.12545,0.45497 -0.42114,0.18867 -0.83475,0.38986 -1.24645,0.59272 q -1.15925,0.57103 -2.28841,1.19212 -2.24675,1.23596 -4.3527,2.66057 -1.09173,0.73881 -2.13838,1.52604 -0.97352,0.73129 -1.90764,1.50184 c -0.13317,0.10939 -0.332,-0.0677 -0.19883,-0.17698 0.16413,-0.13609 0.33013,-0.27133 0.49613,-0.40489 q 0.70341,-0.56601 1.42935,-1.1103 1.32377,-0.99429 2.71609,-1.91174 2.16511,-1.42754 4.47928,-2.66139 1.15644,-0.6161 2.34471,-1.18044 c 0.23919,-0.1135 0.48116,-0.22457 0.72594,-0.32975 a 12.426496,12.426496 0 0 1 1.72569,-0.62529 6.8602383,6.8602383 0 0 1 2.60637,-0.2279 7.3595435,7.3595435 0 0 1 2.40474,0.74049 15.778855,15.778855 0 0 1 3.9869,3.17898 c 0.12002,0.12026 -0.0779,0.29803 -0.19891,0.17781 z"
     id="path102"
     inkscape:connector-curvature="0"
     style="fill:#ffffff;stroke-width:0.64450604"
     inkscape:export-xdpi="96"
     inkscape:export-ydpi="96" />
  <path
     d="m 558.84087,115.92848 c 20.57719,-6.56512 43.53388,-4.82704 63.02784,4.42185 a 82.991109,82.991109 0 0 1 15.66249,9.64674 c 1.37118,1.07616 3.32243,-0.84881 1.93652,-1.93652 a 89.707081,89.707081 0 0 0 -62.97145,-18.46623 86.169406,86.169406 0 0 0 -18.38348,3.69332 c -1.67271,0.53366 -0.9578,3.1787 0.72804,2.64084 z"
     id="path104"
     inkscape:connector-curvature="0"
     style="fill:#3f3d56;stroke-width:0.64450604"
     inkscape:export-xdpi="96"
     inkscape:export-ydpi="96" />
  <path
     d="m 558.84087,134.18619 c 20.57719,-6.56511 43.53388,-4.82704 63.02784,4.42186 a 82.991109,82.991109 0 0 1 15.66249,9.64673 c 1.37118,1.07616 3.32243,-0.84881 1.93652,-1.93652 a 89.707081,89.707081 0 0 0 -62.97145,-18.46623 86.169406,86.169406 0 0 0 -18.38348,3.69333 c -1.67271,0.53365 -0.9578,3.17869 0.72804,2.64083 z"
     id="path106"
     inkscape:connector-curvature="0"
     style="fill:#3f3d56;stroke-width:0.64450604"
     inkscape:export-xdpi="96"
     inkscape:export-ydpi="96" />
  <path
     d="m 558.84087,152.44388 c 20.57719,-6.56512 43.53388,-4.82703 63.02784,4.42186 a 82.991109,82.991109 0 0 1 15.66249,9.64674 c 1.37118,1.07616 3.32243,-0.84881 1.93652,-1.93652 a 89.707081,89.707081 0 0 0 -62.97145,-18.46623 86.169406,86.169406 0 0 0 -18.38348,3.69332 c -1.67271,0.53365 -0.9578,3.1787 0.72804,2.64083 z"
     id="path108"
     inkscape:connector-curvature="0"
     style="fill:#3f3d56;stroke-width:0.64450604"
     inkscape:export-xdpi="96"
     inkscape:export-ydpi="96" />
  <path
     d="m 558.84087,170.70162 c 20.57719,-6.56512 43.53388,-4.82702 63.02784,4.42185 a 82.991109,82.991109 0 0 1 15.66249,9.64674 c 1.37118,1.07616 3.32243,-0.84881 1.93652,-1.93652 a 89.707054,89.707054 0 0 0 -62.97145,-18.46623 86.169406,86.169406 0 0 0 -18.38348,3.69332 c -1.67271,0.53366 -0.9578,3.17871 0.72804,2.64084 z"
     id="path110"
     inkscape:connector-curvature="0"
     style="fill:#3f3d56;stroke-width:0.64450604"
     inkscape:export-xdpi="96"
     inkscape:export-ydpi="96" />
  <path
     d="m 558.84087,188.95933 c 20.57719,-6.56511 43.53388,-4.82702 63.02784,4.42186 a 82.991109,82.991109 0 0 1 15.66249,9.64675 c 1.37118,1.07615 3.32243,-0.84881 1.93652,-1.93653 a 89.707054,89.707054 0 0 0 -62.97145,-18.46622 86.169406,86.169406 0 0 0 -18.38348,3.69331 c -1.67271,0.53366 -0.9578,3.17871 0.72804,2.64084 z"
     id="path112"
     inkscape:connector-curvature="0"
     style="fill:#3f3d56;stroke-width:0.64450604"
     inkscape:export-xdpi="96"
     inkscape:export-ydpi="96" />
  <path
     d="M 632.97773,68.295238 V 119.467 c 0,0.87148 -1.51952,1.59996 -3.57085,1.79661 -0.35752,0.0358 -0.73294,0.0537 -1.12176,0.0537 a 9.3500101,9.3500101 0 0 1 -3.31611,-0.54077 4.2720953,4.2720953 0 0 1 -0.57206,-0.27263 c -0.50948,-0.29942 -0.80443,-0.65251 -0.80443,-1.03685 V 64.349004 c 1.67146,0.558637 3.23118,1.144099 4.6926,1.751923 1.69828,0.706148 3.258,1.439085 4.69261,2.19436 z"
     id="path114"
     inkscape:connector-curvature="0"
     style="fill:#ff251f;fill-opacity:1;stroke-width:0.64450604"
     inkscape:export-xdpi="96"
     inkscape:export-ydpi="96" />
  <rect
     x="651.30646"
     y="85.841217"
     width="1.3407466"
     height="165.52829"
     id="rect116"
     style="fill:#e6e6e6;stroke-width:0.64450604"
     inkscape:export-xdpi="96"
     inkscape:export-ydpi="96" />
  <path
     d="m 772.30429,219.23339 a 14.191746,14.191746 0 0 1 -10.73102,4.35043 c -6.20015,-0.21913 -13.59908,-0.3287 -21.62963,-0.16113 l -0.0451,-0.0387 34.80333,-45.11542 1.50169,30.07909 a 14.193602,14.193602 0 0 1 -3.89926,10.88571 z"
     id="path118"
     inkscape:connector-curvature="0"
     style="fill:#f2f2f2;stroke-width:0.64450604"
     inkscape:export-xdpi="96"
     inkscape:export-ydpi="96" />
  <text
     xml:space="preserve"
     style="font-style:normal;font-weight:normal;font-size:40px;line-height:1.25;font-family:sans-serif;letter-spacing:0px;word-spacing:0px;fill:#3f3d56;fill-opacity:1;stroke:none;"
     x="356.47421"
     y="388.79831"
     id="text860"
     inkscape:export-xdpi="96"
     inkscape:export-ydpi="96"><tspan
       sodipodi:role="line"
       id="tspan858"
       x="356.47421"
       y="388.79831"
       style="font-style:normal;font-variant:normal;font-weight:normal;font-stretch:normal;font-size:106.66666412px;font-family:'DejaVu Serif';-inkscape-font-specification:'DejaVu Serif';fill:#3f3d56;fill-opacity:1;">Contextive</tspan></text>
  <text
     xml:space="preserve"
     style="font-style:normal;font-weight:normal;font-size:40px;line-height:1.25;font-family:sans-serif;letter-spacing:0px;word-spacing:0px;fill:#3f3d56;fill-opacity:1;stroke:none"
     x="363.61667"
     y="459.99564"
     id="text864"
     inkscape:export-xdpi="96"
     inkscape:export-ydpi="96"><tspan
       sodipodi:role="line"
       id="tspan862"
       x="363.61667"
       y="459.99564"
       style="font-size:50.66666794px;fill:#3f3d56;fill-opacity:1">Get on the same page.</tspan></text>
  <text
     xml:space="preserve"
     style="font-style:normal;font-weight:normal;font-size:40px;line-height:1.25;font-family:sans-serif;letter-spacing:0px;word-spacing:0px;fill:#3f3d56;fill-opacity:1;stroke:none"
     x="57.10136"
     y="590.56641"
     id="text868"><tspan
       sodipodi:role="line"
       x="57.10136"
       y="590.56641"
       id="tspan870">@contextive_tech</tspan></text>
  <flowRoot
     xml:space="preserve"
     id="flowRoot942"
     style="font-style:normal;font-weight:normal;font-size:40px;line-height:1.25;font-family:sans-serif;letter-spacing:0px;word-spacing:0px;fill:#000000;fill-opacity:1;stroke:none"
     transform="translate(-10.000001,-80.58939)"><flowRegion
       id="flowRegion944"><rect
         id="rect946"
         width="2232.2036"
         height="1182.7347"
         x="-337.32928"
         y="-398.31314" /></flowRegion><flowPara
       id="flowPara948" /></flowRoot>  <text
     xml:space="preserve"
     style="font-style:normal;font-weight:normal;font-size:40px;line-height:1.25;font-family:sans-serif;letter-spacing:0px;word-spacing:0px;fill:#3f3d56;fill-opacity:1;stroke:none;"
     x="555.96863"
     y="591.67969"
     id="text873"><tspan
       sodipodi:role="line"
       id="tspan871"
       x="555.96863"
       y="591.67969">github.com/dev-cycles/contextive</tspan></text>
</svg>
