<?xml version="1.0" encoding="UTF-8" standalone="no"?>
<svg
   xmlns:dc="http://purl.org/dc/elements/1.1/"
   xmlns:cc="http://creativecommons.org/ns#"
   xmlns:rdf="http://www.w3.org/1999/02/22-rdf-syntax-ns#"
   xmlns:svg="http://www.w3.org/2000/svg"
   xmlns="http://www.w3.org/2000/svg"
   xmlns:sodipodi="http://sodipodi.sourceforge.net/DTD/sodipodi-0.dtd"
   xmlns:inkscape="http://www.inkscape.org/namespaces/inkscape"
   data-name="Layer 1"
   width="688.13922"
   height="688.63684"
   viewBox="0 0 688.13925 688.63684"
   version="1.1"
   id="svg142"
   sodipodi:docname="contextive.svg"
   inkscape:version="0.92.5 (2060ec1f9f, 2020-04-08)"
   inkscape:export-filename="/home/chris/Contextive/contextive/src/vscode/contextive/images/contextive.png"
   inkscape:export-xdpi="78.190002"
   inkscape:export-ydpi="78.190002">
  <metadata
     id="metadata148">
    <rdf:RDF>
      <cc:Work
         rdf:about="">
        <dc:format>image/svg+xml</dc:format>
        <dc:type
           rdf:resource="http://purl.org/dc/dcmitype/StillImage" />
        <dc:title />
      </cc:Work>
    </rdf:RDF>
  </metadata>
  <defs
     id="defs146" />
  <sodipodi:namedview
     pagecolor="#ffffff"
     bordercolor="#666666"
     borderopacity="1"
     objecttolerance="10"
     gridtolerance="10"
     guidetolerance="10"
     inkscape:pageopacity="0"
     inkscape:pageshadow="2"
     inkscape:window-width="1920"
     inkscape:window-height="980"
     id="namedview144"
     showgrid="false"
     fit-margin-top="123.6"
     fit-margin-left="50"
     fit-margin-right="50"
     fit-margin-bottom="124"
     inkscape:zoom="0.33958302"
     inkscape:cx="-116.14051"
     inkscape:cy="335.05336"
     inkscape:window-x="0"
     inkscape:window-y="27"
     inkscape:window-maximized="1"
     inkscape:current-layer="svg142" />
  <path
     d="m 637.88059,464.28728 -38.589,-206.6191 a 15.30459,15.30459 0 0 0 -14.5341,-12.38451 q -0.46807,-0.0104 -0.93615,0 l -26.28762,0.943 -2.82918,0.104 -13.11954,0.47152 -2.82917,0.0971 -8.43894,0.30511 -170.16586,6.10912 c -0.25656,0.0138 -0.52007,0.0138 -0.77663,0.007 l -38.13129,-0.79741 -14.11113,-0.29123 -0.45074,-0.007 -10.41522,-0.2219 -90.75513,-1.88613 -24.06172,-0.50618 -11.86449,-0.24268 -2.843,-0.0624 -13.52868,-0.27739 -2.83607,-0.0624 -13.84073,-0.28433 -2.83611,-0.0624 -15.20675,-0.319 -2.38538,-0.0485 -13.56334,-0.28428 -2.14265,-0.0416 h -0.312 a 15.263,15.263 0 0 0 -14.991793,12.7451 l -34.9,214.40622 a 15.18177,15.18177 0 0 0 14.98485,17.62679 H 265.60984 a 13.88889,13.88889 0 0 1 8.19626,2.70436 l 3.79994,2.8153 a 15.32026,15.32026 0 0 0 9.03527,2.9817 H 404.7589 a 15.09079,15.09079 0 0 0 10.74111,-4.4518 13.7781,13.7781 0 0 1 9.01449,-4.0149 l 199.23414,-10.49852 a 15.18288,15.18288 0 0 0 14.13195,-17.95267 z"
     id="path52"
     inkscape:connector-curvature="0"
     style="fill:#3f3d56;fill-opacity:1" />
  <path
     d="m 606.30215,458.67053 -21.51,-213.10952 c -0.007,-0.0901 -0.0208,-0.18719 -0.0347,-0.27734 a 13.5326,13.5326 0 0 0 -4.70143,-8.744 L 533.78396,197.9923 a 12.27574,12.27574 0 0 0 -7.13535,-2.85 c -21.17016,-1.35912 -128.79627,-6.39337 -168.52242,28.09055 a 10.936,10.936 0 0 1 -8.88968,2.55179 11.1356,11.1356 0 0 1 -7.71086,-5.17294 45.57012,45.57012 0 0 0 -13.00167,-13.25824 69.16331,69.16331 0 0 0 -7.28093,-4.41709 c -2.2259,-1.17189 -4.64594,-2.30911 -7.28094,-3.40469 -2.2675,-0.94309 -4.68754,-1.85147 -7.28093,-2.71825 -13.44547,-4.49336 -31.419,-7.84954 -55.43913,-8.97288 -9.96448,-0.47153 -20.79574,-0.53391 -32.18866,-0.19414 -10.40134,0.30511 -21.45449,0.9361 -32.84742,1.87915 l -0.16641,0.007 -77.0878,47.06257 a 13.431,13.431 0 0 0 -6.2477,9.95758 l -0.15952,1.41457 -24.477803,218.71234 a 13.718,13.718 0 0 0 3.15506,10.40828 12.58506,12.58506 0 0 0 9.56232,4.46564 H 280.72643 a 11.178,11.178 0 0 1 6.94117,2.46164 l 8.2933,6.643 a 12.5385,12.5385 0 0 0 7.60687,2.75981 l 83.51579,1.36606 h 0.20108 a 12.4541,12.4541 0 0 0 6.02584,-1.56714 l 16.10819,-8.94516 a 11.12148,11.12148 0 0 1 4.78463,-1.38685 l 180.01245,-9.50679 a 12.5116,12.5116 0 0 0 9.07691,-4.64594 13.56815,13.56815 0 0 0 3.00949,-10.06158 z"
     id="path54"
     inkscape:connector-curvature="0"
     style="fill:#e6e6e6" />
  <path
     d="m 543.46883,420.23834 -2.52,-33.17 -10.63,-139.86 -1.58,-20.69 a 21.92382,21.92382 0 0 0 -21.36,-20.31 c -38.95,-1 -109.48,0.76 -144.09,23.95 a 19.1879,19.1879 0 0 1 -25.11,-3.1 55.80676,55.80676 0 0 0 -16.94,-12.65 95.54807,95.54807 0 0 0 -14.56,-5.86 q -21.97494,-7.02 -55.46,-8.53 l -52.98,-0.31 h -0.09 a 14.44224,14.44224 0 0 0 -14.4,13.53 l -2.3,36.37 -10.05,159.5 a 21.97453,21.97453 0 0 0 21.63,23.36 c 88.93,1.32 127.78,20.09 144.72,35.59 a 21.96679,21.96679 0 0 0 26.9,2.18 c 30.75,-20.14 81.87,-25.74 122.56,-26.61 12.46,-0.26 23.94,-0.09 33.56,0.25 a 21.97354,21.97354 0 0 0 22.7,-23.64 z"
     id="path56"
     inkscape:connector-curvature="0"
     style="fill:#ffffff" />
  <path
     d="m 101.98281,466.50112 c -0.0332,0 -0.0678,-0.001 -0.101,-0.004 a 1.41553,1.41553 0 0 1 -1.31267,-1.51185 l 15.30112,-216.05256 a 1.39921,1.39921 0 0 1 1.51185,-1.31267 1.41554,1.41554 0 0 1 1.31267,1.51186 l -15.30109,216.05244 a 1.41528,1.41528 0 0 1 -1.41088,1.31678 z"
     id="path58"
     inkscape:connector-curvature="0"
     style="fill:#ffffff" />
  <path
     d="m 120.39616,458.00265 c -0.0332,0 -0.0678,-0.001 -0.101,-0.004 a 1.41553,1.41553 0 0 1 -1.31267,-1.51185 l 15.30112,-216.05256 a 1.39921,1.39921 0 0 1 1.51185,-1.31267 1.41554,1.41554 0 0 1 1.31267,1.51186 l -15.30109,216.05255 a 1.41528,1.41528 0 0 1 -1.41088,1.31682 z"
     id="path60"
     inkscape:connector-curvature="0"
     style="fill:#ffffff" />
  <path
     d="m 137.3931,453.75342 c -0.0332,0 -0.0678,-0.001 -0.101,-0.004 a 1.41553,1.41553 0 0 1 -1.31267,-1.51186 l 15.30111,-216.05255 a 1.39921,1.39921 0 0 1 1.51186,-1.31267 1.41553,1.41553 0 0 1 1.31267,1.51185 l -15.30109,216.05256 a 1.4153,1.4153 0 0 1 -1.41088,1.31682 z"
     id="path62"
     inkscape:connector-curvature="0"
     style="fill:#ffffff" />
  <path
     d="m 154.39004,445.25495 c -0.0332,0 -0.0678,-0.001 -0.101,-0.004 a 1.41554,1.41554 0 0 1 -1.31268,-1.51186 l 15.30112,-216.05255 a 1.39921,1.39921 0 0 1 1.51186,-1.31267 1.41554,1.41554 0 0 1 1.31267,1.51185 l -15.30109,216.05256 a 1.4153,1.4153 0 0 1 -1.41088,1.31682 z"
     id="path64"
     inkscape:connector-curvature="0"
     style="fill:#ffffff" />
  <path
     d="m 589.22561,467.91753 c 0.0332,0 0.0678,-10e-4 0.101,-0.004 a 1.41553,1.41553 0 0 0 1.31267,-1.51185 l -15.30114,-216.0527 a 1.39922,1.39922 0 0 0 -1.51185,-1.31268 1.41553,1.41553 0 0 0 -1.31267,1.51186 l 15.30111,216.05255 a 1.4153,1.4153 0 0 0 1.41088,1.31682 z"
     id="path66"
     inkscape:connector-curvature="0"
     style="fill:#ffffff" />
  <path
     d="m 570.81226,455.16983 c 0.0332,0 0.0678,-10e-4 0.101,-0.004 a 1.41553,1.41553 0 0 0 1.31267,-1.51185 L 556.92479,237.60127 a 1.39921,1.39921 0 0 0 -1.51185,-1.31267 1.41553,1.41553 0 0 0 -1.31267,1.51185 l 15.30116,216.05256 a 1.4153,1.4153 0 0 0 1.41083,1.31682 z"
     id="path68"
     inkscape:connector-curvature="0"
     style="fill:#ffffff" />
  <path
     d="m 553.81532,441.00571 c 0.0332,0 0.0678,-0.001 0.101,-0.004 a 1.41553,1.41553 0 0 0 1.31267,-1.51185 l -15.30114,-216.0527 a 1.3992,1.3992 0 0 0 -1.51185,-1.31267 1.41553,1.41553 0 0 0 -1.31267,1.51185 l 15.3011,216.05255 a 1.41528,1.41528 0 0 0 1.41089,1.31682 z"
     id="path70"
     inkscape:connector-curvature="0"
     style="fill:#ffffff" />
  <path
     d="m 206.21414,248.51467 c 31.92708,-10.18627 67.54612,-7.48949 97.79249,6.86086 a 128.767,128.767 0 0 1 24.30154,14.96765 c 2.12748,1.66973 5.155,-1.317 3.00466,-3.00467 a 139.18729,139.18729 0 0 0 -97.705,-28.65175 133.69837,133.69837 0 0 0 -28.52335,5.73047 c -2.59534,0.828 -1.48609,4.932 1.12962,4.09744 z"
     id="path72"
     inkscape:connector-curvature="0"
     style="fill:#3f3d56" />
  <path
     d="m 381.89803,271.99156 c 29.68384,-15.60224 65.22951,-19.00454 97.50383,-10.14806 a 128.52039,128.52039 0 0 1 26.512,10.54121 c 2.41182,1.28694 4.56081,-2.37985 2.14467,-3.66908 -30.7598,-16.41326 -67.684,-20.19162 -101.27415,-11.04221 a 133.65686,133.65686 0 0 0 -27.031,10.64905 c -2.42152,1.27278 -0.27623,4.94155 2.14467,3.66909 z"
     id="path74"
     inkscape:connector-curvature="0"
     style="fill:#3f3d56" />
  <path
     d="m 381.89803,300.31979 c 29.68384,-15.60224 65.22951,-19.00454 97.50383,-10.14806 a 128.51987,128.51987 0 0 1 26.512,10.54122 c 2.41182,1.28693 4.56081,-2.37985 2.14467,-3.66909 -30.7598,-16.41326 -67.684,-20.19162 -101.27415,-11.04221 a 133.65686,133.65686 0 0 0 -27.031,10.649 c -2.42152,1.27278 -0.27623,4.94155 2.14467,3.66909 z"
     id="path76"
     inkscape:connector-curvature="0"
     style="fill:#3f3d56" />
  <path
     d="m 509.09815,327.12834 a 1.8212,1.8212 0 0 0 -1.047,-1.76127 139.34987,139.34987 0 0 0 -80.222,-15.02646 c -0.17335,0.0138 -0.33287,0.0416 -0.52006,0.0555 h -0.007 a 4.25452,4.25452 0 0 0 -0.50622,0.0763 134.22314,134.22314 0 0 0 -47.04176,14.49944 2.14427,2.14427 0 0 0 -1.04707,1.84453 v 52.84569 a 2.14422,2.14422 0 0 0 2.69048,2.03867 c 0.65182,-0.1872 1.30364,-0.3675 1.96934,-0.54085 a 210.62048,210.62048 0 0 1 45.3498,-7.09374 c 0.32593,-0.0138 0.65182,-0.0277 0.99159,-0.0416 a 237.56912,237.56912 0 0 1 37.41013,1.3452 7.79956,7.79956 0 0 1 0.77663,0.0832 c 0.63793,0.0694 1.28975,0.14564 1.92773,0.22884 0.25656,0.0277 0.49925,0.0555 0.735,0.0971 2.48242,0.312 4.9441,0.66566 7.41268,1.04708 q 5.34624,0.85292 10.69257,1.9 c 0.2219,0.0416 0.45074,0.0971 0.67954,0.13869 5.72073,1.13718 11.41375,2.4547 17.079,3.91087 a 2.15283,2.15283 0 0 0 2.69049,-2.0525 v -53.51147 a 0.17575,0.17575 0 0 0 -0.0139,-0.0832 z"
     id="path78"
     inkscape:connector-curvature="0"
     style="fill:#3f3d56" />
  <path
     d="m 431.16037,313.22217 a 6.98812,6.98812 0 0 0 -5.0068,-0.43986 5.93389,5.93389 0 0 0 -3.33484,3.13627 15.08318,15.08318 0 0 0 -1.09769,4.31411 c -0.088,0.58389 -0.0935,1.32065 0.4934,1.59325 a 1.24284,1.24284 0 0 0 1.26123,-0.24972 3.72724,3.72724 0 0 0 0.73848,-1.03033 11.21525,11.21525 0 0 1 9.4739,-5.15079 l 1.56875,0.62532 a 18.58017,18.58017 0 0 0 -4.09643,-2.79825 z"
     id="path80"
     inkscape:connector-curvature="0"
     style="fill:#ff6582" />
  <path
     d="m 448.13892,325.40234 c -1.2174,-1.79223 -2.66,-3.7058 -4.91917,-4.291 -2.6163,-0.67771 -5.30389,0.66859 -7.58359,1.99712 a 221.54111,221.54111 0 0 0 -19.6664,12.89771 l 0.007,0.0696 14.67535,-0.90083 c 3.53432,-0.21695 7.19006,-0.46382 10.31342,-1.952 a 9.7255,9.7255 0 0 1 3.68357,-1.37165 6.15648,6.15648 0 0 1 4.26687,2.05572 c 6.76333,6.41063 8.72051,16.214 16.30829,21.84622 a 206.082,206.082 0 0 0 -17.08534,-30.35089 z"
     id="path82"
     inkscape:connector-curvature="0"
     style="fill:#ffffff" />
  <path
     d="m 429.71056,374.02356 c -0.33958,0.0142 -0.66567,0.0283 -0.99142,0.0425 -2.36529,-0.84981 -4.7873,-1.60055 -7.23766,-2.25222 -1.58655,-0.42482 -3.20111,-0.80728 -4.816,-1.133 -1.82723,-0.39647 -3.66829,-0.70821 -5.50969,-0.97742 a 88.11476,88.11476 0 0 0 -10.58055,-0.89217 0.19234,0.19234 0 1 1 0,-0.38246 c 0.453,0 0.90635,0.0142 1.34552,0.0425 a 88.23278,88.23278 0 0 1 10.59473,1.034 c 1.82723,0.29739 3.65445,0.65149 5.4675,1.04813 1.64291,0.36828 3.28583,0.77909 4.90073,1.23227 q 3.46286,0.97718 6.82684,2.23781 z"
     id="path84"
     inkscape:connector-curvature="0"
     style="fill:#ffffff" />
  <path
     d="m 470.56,375.77989 c -0.24068,-0.0425 -0.48171,-0.0709 -0.73656,-0.0991 -0.97725,-0.80728 -1.96866,-1.5722 -3.00262,-2.32294 -1.28915,-0.93488 -2.6205,-1.813 -3.9802,-2.6345 a 70.6711,70.6711 0 0 0 -9.40516,-4.78748 93.78572,93.78572 0 0 0 -15.8921,-5.01415 158.1359,158.1359 0 0 0 -18.79546,-2.94607 c -6.31749,-0.65167 -12.663,-1.04813 -19.00848,-1.44477 -0.269,-0.0142 -0.28321,-0.41064 0,-0.39664 0.79327,0.0567 1.58655,0.0991 2.39365,0.15579 6.41639,0.39663 12.83277,0.85 19.20663,1.57237 a 146.42475,146.42475 0 0 1 18.76745,3.25764 91.27951,91.27951 0 0 1 15.38238,5.28319 69.94194,69.94194 0 0 1 8.27162,4.405 c 1.68545,1.06231 3.31453,2.19551 4.87237,3.39943 0.65184,0.50989 1.30334,1.01995 1.92648,1.5722 z"
     id="path86"
     inkscape:connector-curvature="0"
     style="fill:#ffffff" />
  <path
     d="m 467.89731,375.45415 a 7.69527,7.69527 0 0 0 -0.7791,-0.0851 c -0.29739,-0.24068 -0.6093,-0.46736 -0.92053,-0.694 a 64.77854,64.77854 0 0 0 -6.813,-4.26341 72.16616,72.16616 0 0 0 -6.58652,-3.15857 92.52514,92.52514 0 0 0 -15.89209,-5.014 158.10729,158.10729 0 0 0 -18.79581,-2.94608 c -6.31714,-0.65166 -12.66264,-1.04813 -19.00814,-1.44476 -0.269,-0.0284 -0.269,-0.41082 0,-0.39664 0.80746,0.0567 1.60038,0.0991 2.39366,0.15579 6.41638,0.39646 12.83277,0.84981 19.20662,1.57219 a 146.39352,146.39352 0 0 1 18.76745,3.25782 90.80435,90.80435 0 0 1 15.382,5.28318 c 1.86976,0.84982 3.697,1.77052 5.48168,2.77612 a 57.987,57.987 0 0 1 7.56378,4.95743 z"
     id="path88"
     inkscape:connector-curvature="0"
     style="fill:#ffffff" />
  <path
     d="m 489.34163,378.86775 c -0.2265,-0.0425 -0.45335,-0.0991 -0.67985,-0.14161 -0.25486,-0.26921 -0.49588,-0.55242 -0.73656,-0.83581 q -1.82688,-2.10335 -3.61192,-4.24923 c -4.68806,-5.58058 -9.13579,-11.33129 -13.32831,-17.19509 q -5.39661,-7.52123 -10.24063,-15.33984 c -1.544,-2.46455 -3.03131,-4.95744 -4.48991,-7.4787 q -1.6998,-2.93172 -3.31453,-5.878 c -0.31157,-0.5666 -0.609,-1.1332 -0.90635,-1.6998 -0.69437,-1.33151 -1.3884,-2.677 -2.12462,-3.9942 a 11.28767,11.28767 0 0 0 -3.428,-4.07927 5.01571,5.01571 0 0 0 -2.43619,-0.83564 7.36587,7.36587 0 0 0 -3.51267,0.90635 114.45039,114.45039 0 0 0 -22.28007,13.66843 107.685,107.685 0 0 0 -18.10178,17.88929 c -0.16979,0.19831 -0.53842,0.0142 -0.38246,-0.19832 0.63731,-0.7931 1.28881,-1.58638 1.9403,-2.36547 a 108.58025,108.58025 0 0 1 17.12454,-16.2745 c 0.0142,-0.0142 0.0425,-0.0284 0.0567,-0.0424 0.55225,-0.43917 1.10484,-0.864 1.67127,-1.2748 a 115.92163,115.92163 0 0 1 10.935,-7.13877 q 2.88919,-1.67853 5.90633,-3.18693 c 0.49553,-0.25486 1.00559,-0.50989 1.51531,-0.75074 0.51006,-0.25486 1.02012,-0.49553 1.52983,-0.73656 a 8.33807,8.33807 0 0 1 3.24364,-0.89217 c 3.93767,-0.0567 5.963,3.90931 7.36527,6.58617 0.43917,0.83581 0.89252,1.67144 1.33169,2.50708 1.69963,3.15857 3.47014,6.30313 5.31155,9.405 1.11867,1.9263 2.28022,3.83859 3.456,5.73654 1.68544,2.70539 3.41342,5.38226 5.21229,8.04529 a 0.01389,0.01389 0 0 0 0.0142,0.0142 c 2.08209,3.14439 4.24924,6.23207 6.48728,9.30575 q 5.75763,7.88225 12.06785,15.41056 2.16712,2.59191 4.40481,5.11317 z"
     id="path90"
     inkscape:connector-curvature="0"
     style="fill:#ffffff" />
  <path
     d="m 509.11468,372.62134 v 0.6515 c -1.40224,-1.64292 -2.83283,-3.27182 -4.24924,-4.90073 q -0.89217,-1.01978 -1.78469,-2.03955 -3.78188,-4.29177 -7.606,-8.55518 c -2.56379,-2.83283 -5.12758,-5.66565 -7.71972,-8.48429 -0.62314,-0.67985 -1.24628,-1.3597 -1.88359,-2.03955 a 14.66318,14.66318 0 0 0 -1.65744,-1.58655 6.15005,6.15005 0 0 0 -2.02537,-1.119 5.07747,5.07747 0 0 0 -2.606,-0.0282 c -0.97758,0.22667 -1.91229,0.58077 -2.86117,0.87816 -0.97759,0.32575 -1.94065,0.63732 -2.9179,0.94889 -1.95482,0.63749 -3.89513,1.275 -5.84995,1.91229 a 0.1936,0.1936 0 0 1 -0.25486,-0.11342 0.19745,0.19745 0 0 1 0.14178,-0.269 c 0.4817,-0.15578 0.97724,-0.31156 1.47312,-0.46752 1.96866,-0.6515 3.92314,-1.28881 5.89215,-1.92613 0.97724,-0.32592 1.95448,-0.63749 2.93207,-0.94906 a 8.76284,8.76284 0 0 1 2.83282,-0.56659 6.40875,6.40875 0 0 1 4.16417,1.95465 c 0.609,0.5666 1.16155,1.16138 1.7138,1.77051 q 0.97723,1.06232 1.95483,2.12462 3.93022,4.29177 7.80409,8.61172 3.88822,4.33431 7.70554,8.68261 0.276,0.31875 0.55225,0.63749 c 1.43066,1.61448 2.8329,3.24356 4.24931,4.87231 z"
     id="path92"
     inkscape:connector-curvature="0"
     style="fill:#ffffff" />
  <path
     d="m 438.80843,316.31219 -0.3918,0.17132 a 10.69107,10.69107 0 0 0 -8.63631,-5.22851 c -5.79888,-0.41194 -10.89281,3.45259 -11.35588,8.614 a 8.53048,8.53048 0 0 0 1.72435,5.9379 l -0.36368,0.215 a 8.88375,8.88375 0 0 1 -1.79586,-6.18381 c 0.48188,-5.37491 5.787,-9.3994 11.82587,-8.97047 a 11.133,11.133 0 0 1 8.99331,5.44457 z"
     id="path94"
     inkscape:connector-curvature="0"
     style="fill:#ff6582" />
  <path
     d="m 410.1545,326.75493 a 10.45864,10.45864 0 0 0 -9.525,0.60631 150.15194,150.15194 0 0 1 15.45625,3.211 c -2.10842,-1.09981 -3.75772,-2.82297 -5.93125,-3.81731 z"
     id="path96"
     inkscape:connector-curvature="0"
     style="fill:#ffffff" />
  <path
     d="m 400.60021,327.35656 -0.57311,0.41464 c 0.19385,-0.14513 0.39538,-0.2812 0.60241,-0.41 z"
     id="path98"
     inkscape:connector-curvature="0"
     style="fill:#ffffff" />
  <path
     d="m 483.99425,348.2767 a 4.78836,4.78836 0 0 0 -2.06266,-1.5328 l -0.80528,0.0283 a 85.05431,85.05431 0 0 0 24.32912,24.75752 q -10.7306,-11.62648 -21.46118,-23.25299 z"
     id="path100"
     inkscape:connector-curvature="0"
     style="fill:#ffffff" />
  <path
     d="m 417.85937,329.76134 c -0.22844,-0.22668 -0.45546,-0.45335 -0.68539,-0.68 a 19.89084,19.89084 0 0 0 -6.24857,-4.57235 10.00066,10.00066 0 0 0 -3.798,-0.78365 11.98479,11.98479 0 0 0 -3.9435,0.76552 c -0.59373,0.21113 -1.17438,0.45075 -1.74623,0.70592 -0.65341,0.29273 -1.29517,0.6049 -1.93395,0.91965 q -1.79867,0.886 -3.55064,1.84966 -3.486,1.91768 -6.75355,4.12807 -1.69389,1.14632 -3.31787,2.36777 -1.51047,1.13466 -2.95983,2.33021 c -0.20662,0.16969 -0.51514,-0.10491 -0.30851,-0.27459 0.25466,-0.21114 0.51223,-0.421 0.7698,-0.62821 q 1.09138,-0.8782 2.21774,-1.72273 2.05392,-1.54269 4.21421,-2.96619 3.35934,-2.21495 6.94994,-4.12936 1.7943,-0.95592 3.638,-1.83153 c 0.37112,-0.17616 0.74657,-0.34844 1.12635,-0.51164 a 19.28065,19.28065 0 0 1 2.67753,-0.97017 10.64418,10.64418 0 0 1 4.044,-0.35361 11.41889,11.41889 0 0 1 3.73112,1.14892 24.48209,24.48209 0 0 1 6.186,4.93243 c 0.18617,0.18651 -0.12093,0.46241 -0.30865,0.27588 z"
     id="path102"
     inkscape:connector-curvature="0"
     style="fill:#ffffff" />
  <path
     d="m 206.21414,276.84291 c 31.92708,-10.18628 67.54612,-7.4895 97.79249,6.86085 a 128.767,128.767 0 0 1 24.30154,14.96765 c 2.12748,1.66973 5.155,-1.317 3.00466,-3.00467 a 139.18734,139.18734 0 0 0 -97.705,-28.65175 133.69837,133.69837 0 0 0 -28.52335,5.73047 c -2.59534,0.828 -1.48609,4.932 1.12962,4.09745 z"
     id="path104"
     inkscape:connector-curvature="0"
     style="fill:#3f3d56" />
  <path
     d="m 206.21414,305.17114 c 31.92708,-10.18627 67.54612,-7.4895 97.79249,6.86085 a 128.767,128.767 0 0 1 24.30154,14.96765 c 2.12748,1.66973 5.155,-1.317 3.00466,-3.00467 a 139.18734,139.18734 0 0 0 -97.705,-28.65175 133.69837,133.69837 0 0 0 -28.52335,5.73047 c -2.59534,0.828 -1.48609,4.932 1.12962,4.09745 z"
     id="path106"
     inkscape:connector-curvature="0"
     style="fill:#3f3d56" />
  <path
     d="m 206.21414,333.49934 c 31.92708,-10.18627 67.54612,-7.4895 97.79249,6.86085 a 128.767,128.767 0 0 1 24.30154,14.96765 c 2.12748,1.66973 5.155,-1.317 3.00466,-3.00467 a 139.18734,139.18734 0 0 0 -97.705,-28.65175 133.69837,133.69837 0 0 0 -28.52335,5.73047 c -2.59534,0.828 -1.48609,4.932 1.12962,4.09745 z"
     id="path108"
     inkscape:connector-curvature="0"
     style="fill:#3f3d56" />
  <path
     d="m 206.21414,361.8276 c 31.92708,-10.18627 67.54612,-7.48949 97.79249,6.86085 a 128.767,128.767 0 0 1 24.30154,14.96765 c 2.12748,1.66973 5.155,-1.317 3.00466,-3.00466 a 139.1873,139.1873 0 0 0 -97.705,-28.65176 133.69837,133.69837 0 0 0 -28.52335,5.73047 c -2.59534,0.828 -1.48609,4.932 1.12962,4.09745 z"
     id="path110"
     inkscape:connector-curvature="0"
     style="fill:#3f3d56" />
  <path
     d="m 206.21414,390.15583 c 31.92708,-10.18627 67.54612,-7.48949 97.79249,6.86085 a 128.767,128.767 0 0 1 24.30154,14.96766 c 2.12748,1.66973 5.155,-1.317 3.00466,-3.00466 a 139.1873,139.1873 0 0 0 -97.705,-28.65176 133.69837,133.69837 0 0 0 -28.52335,5.73047 c -2.59534,0.828 -1.48609,4.932 1.12962,4.09745 z"
     id="path112"
     inkscape:connector-curvature="0"
     style="fill:#3f3d56" />
  <path
     d="m 321.24311,202.93634 v 79.39686 c 0,1.35218 -2.35766,2.48247 -5.54044,2.78757 -0.55473,0.0555 -1.13722,0.0832 -1.7405,0.0832 a 14.50725,14.50725 0 0 1 -5.14518,-0.83906 6.62848,6.62848 0 0 1 -0.8876,-0.423 c -0.79051,-0.46458 -1.24815,-1.01241 -1.24815,-1.60875 v -85.5198 c 2.59339,0.86678 5.01343,1.77516 7.28093,2.71825 2.635,1.09563 5.05504,2.23285 7.28094,3.40472 z"
     id="path114"
     inkscape:connector-curvature="0"
     style="fill:#ff251f;fill-opacity:1" />
  <rect
     x="349.68155"
     y="230.16022"
     width="2.0802701"
     height="256.82971"
     id="rect116"
     style="fill:#e6e6e6" />
  <path
     d="m 537.41884,437.12834 a 22.01957,22.01957 0 0 1 -16.65,6.75 c -9.62,-0.34 -21.1,-0.51 -33.56,-0.25 l -0.07,-0.06 54,-70 2.33,46.67 a 22.02245,22.02245 0 0 1 -6.05,16.89 z"
     id="path118"
     inkscape:connector-curvature="0"
     style="fill:#f2f2f2" />
</svg>
