<?xml version="1.0" encoding="UTF-8" standalone="no"?>
<svg
   xmlns:dc="http://purl.org/dc/elements/1.1/"
   xmlns:cc="http://creativecommons.org/ns#"
   xmlns:rdf="http://www.w3.org/1999/02/22-rdf-syntax-ns#"
   xmlns:svg="http://www.w3.org/2000/svg"
   xmlns="http://www.w3.org/2000/svg"
   xmlns:sodipodi="http://sodipodi.sourceforge.net/DTD/sodipodi-0.dtd"
   xmlns:inkscape="http://www.inkscape.org/namespaces/inkscape"
   viewBox="0 0 82.279999 82.279998"
   version="1.1"
   id="svg20"
   sodipodi:docname="contextive.svg"
   inkscape:version="0.92.5 (2060ec1f9f, 2020-04-08)"
   inkscape:export-filename="/home/chris/Contextive/contextive.png"
   inkscape:export-xdpi="597.37482"
   inkscape:export-ydpi="597.37482"
   width="82.279999"
   height="82.279999">
  <metadata
     id="metadata24">
    <rdf:RDF>
      <cc:Work
         rdf:about="">
        <dc:format>image/svg+xml</dc:format>
        <dc:type
           rdf:resource="http://purl.org/dc/dcmitype/StillImage" />
        <dc:title></dc:title>
      </cc:Work>
    </rdf:RDF>
  </metadata>
  <sodipodi:namedview
     pagecolor="#ffffff"
     bordercolor="#666666"
     borderopacity="1"
     objecttolerance="10"
     gridtolerance="10"
     guidetolerance="10"
     inkscape:pageopacity="0"
     inkscape:pageshadow="2"
     inkscape:window-width="1920"
     inkscape:window-height="980"
     id="namedview22"
     showgrid="false"
     inkscape:zoom="5.736509"
     inkscape:cx="49.481506"
     inkscape:cy="49.864904"
     inkscape:window-x="0"
     inkscape:window-y="27"
     inkscape:window-maximized="1"
     inkscape:current-layer="g18"
     inkscape:pagecheckerboard="true"
     fit-margin-top="0"
     fit-margin-left="1.81812"
     fit-margin-right="1.81812"
     fit-margin-bottom="0" />
  <defs
     id="defs12">
    <linearGradient
       id="b"
       x1="162.00999"
       x2="145.28"
       y1="125.2"
       y2="41.813"
       gradientUnits="userSpaceOnUse">
      <stop
         stop-color="#c4d9ea"
         stop-opacity="0"
         offset="0"
         id="stop2" />
      <stop
         stop-color="#fff"
         offset="1"
         id="stop4" />
    </linearGradient>
    <linearGradient
       id="a"
       x1="191.31"
       x2="141.89"
       y1="115.21"
       y2="143.24001"
       gradientUnits="userSpaceOnUse">
      <stop
         stop-color="#b44c33"
         offset="0"
         id="stop7" />
      <stop
         stop-color="#ffca00"
         offset="1"
         id="stop9" />
    </linearGradient>
  </defs>
  <g
     transform="translate(-150.16188,-57.97529)"
     id="g18">
    <path
       style="fill:#fffffd;fill-opacity:1;stroke-width:0.92873746"
       d="m 166.43569,59.71851 c -6.74533,0 -12.17457,5.177341 -12.17457,11.607507 v 51.396063 c 0,6.43016 5.42924,11.6075 12.17457,11.6075 h 50.44282 c 6.74534,0 12.17643,-5.17734 12.17643,-11.6075 V 71.326017 c 0,-6.430166 -5.43109,-11.607507 -12.17643,-11.607507 z"
       id="path14-3"
       inkscape:connector-curvature="0"
       sodipodi:nodetypes="sssssssss" />
    <path
       d="m 164.79376,57.97529 c -7.0912,0 -12.8,5.7088 -12.8,12.8 v 56.68 c 0,7.0912 5.7088,12.8 12.8,12.8 h 53.03 c 7.0912,0 12.8,-5.7088 12.8,-12.8 v -56.68 c 0,-7.0912 -5.7088,-12.8 -12.8,-12.8 z m 49.04,3.15 c 0.74088,0 0.86441,0.14794 1,1.2 0.21208,1.64558 0.70533,4.08628 1.45,7.2 0.61575,2.57462 2.41731,9.1329 3.44,12.5 1.08759,3.58069 1.39555,4.57285 2.25,7.26 0.91911,2.89043 1.12774,3.5283 2.2,6.76 0.26885,0.81029 0.70804,1.98978 0.97,2.62 1.44931,3.48683 2.77359,7.32208 3.03,8.77 0.20673,1.16726 0.15987,1.33726 -0.41,1.47 -5.97764,1.39239 -10.57711,3.01271 -17.44,6.15 -1.85741,0.8491 -4.27158,2.04949 -4.41,2.19 -0.0832,0.0845 -0.0528,0.1999 0.15,0.49 0.52143,0.74604 0.078,1.32525 -1.74,2.27 -4.05476,2.10708 -6.34,2.32538 -6.34,0.61 -1e-5,-0.24116 -0.0374,-0.46694 -0.08,-0.5 -0.19726,-0.15316 -4.66752,1.62562 -7.87,3.13 -4.27226,2.00693 -7.95255,3.98019 -13.19,7.06 -1.23563,0.72659 -2.27638,1.32 -2.32,1.32 -0.0436,0 -0.11909,-0.11495 -0.16,-0.25 -0.0409,-0.13505 -0.30291,-0.90971 -0.59,-1.72 -0.28709,-0.81029 -0.98902,-2.79942 -1.55,-4.42 -0.56098,-1.62058 -1.35309,-3.92957 -1.77,-5.13 -4.10743,-11.82701 -5.44315,-15.6615 -8.54,-24.6 -1.02936,-2.97106 -2.52255,-7.26918 -3.32,-9.55 -0.79745,-2.28082 -1.47649,-4.25344 -1.5,-4.38 -0.0533,-0.28704 -0.0609,-0.27798 1.57,-0.74 12.93388,-3.6639 23.90635,-3.20694 31.07,1.3 1.13256,0.71253 2.42631,1.72925 2.98,2.34 0.17794,0.19624 0.37672,0.3305 0.44,0.3 0.0633,-0.0305 0.26587,-0.48895 0.45,-1.02 0.52851,-1.5243 1.94991,-4.9772 2.69,-6.53 2.31579,-4.85878 4.94515,-8.74686 7.73,-11.42 2.00282,-1.92248 4.4498,-3.44402 6.69,-4.17 0.68927,-0.22338 2.42975,-0.51 3.12,-0.51 z m 0.52,9.3 c -0.0382,0.04794 0.36175,1.37172 1.77,5.87 0.57312,1.83065 1.65043,5.28914 2.4,7.69 0.74957,2.40086 1.54357,4.92975 1.76,5.62 2.37127,7.56213 4.46,14.53192 4.46,14.88 0,0.26194 -0.0216,0.25867 -1.2,0.39 -4.28097,0.47714 -9.44309,2.27208 -13.02,4.52 -2.46169,1.54706 -4.3068,3.08638 -6.11,5.09 -0.49209,0.5468 -0.91,0.96512 -0.93,0.94 -0.15032,-0.18885 0.97381,-1.95806 2.12,-3.34 2.39332,-2.88556 5.46386,-5.00387 9.23,-6.37 1.33999,-0.48606 2.04023,-0.68896 3.91,-1.1 0.81252,-0.17862 2.36992,-0.37998 3.77,-0.5 1.09293,-0.0937 1.56012,-0.18217 1.59,-0.28 0.0495,-0.1622 -0.0879,-0.61257 -2.69,-8.61 -0.78145,-2.4017 -1.65637,-5.07398 -2.44,-7.49 -0.36294,-1.11906 -0.84739,-2.58842 -1.08,-3.27 l -0.61,-1.79 c -0.10028,-0.2961 -0.15921,-0.43881 -0.18,-0.47 0.003,0.08882 0.17031,0.7156 0.46,1.67 0.96347,3.17416 2.32814,7.6514 3.35,10.97 1.35227,4.39163 2.26,7.48602 2.26,7.7 0,0.21398 0.11323,0.1749 -1.95,0.59 -2.82084,0.56753 -6.06267,1.66856 -8.6,2.92 -4.93359,2.43329 -8.42167,5.78876 -10.51,10.11 -0.22145,0.45825 -0.43923,0.83 -0.48,0.83 -0.0408,0 -0.1552,-0.25489 -0.25,-0.57 -0.0948,-0.31511 -0.66288,-2.13931 -1.27,-4.06 -1.08442,-3.43074 -1.41749,-4.47788 -2.35,-7.53 -0.25672,-0.8403 -0.68093,-2.23969 -0.95,-3.11 -0.26907,-0.87031 -0.76506,-2.51959 -1.1,-3.66 -0.33494,-1.14041 -0.64596,-2.12298 -0.69,-2.18 -0.14049,-0.18194 -0.0887,0.55016 0.13,1.83 0.21215,1.24135 0.36267,1.84362 1.16,4.61 0.24221,0.8403 0.65993,2.33965 0.93,3.33 0.56303,2.0645 1.04826,3.80055 2.04,7.38 0.64669,2.33406 0.77061,2.87 0.66,2.87 -0.0227,0 -0.40643,-0.24226 -0.85,-0.54 -3.67236,-2.46502 -9.18724,-3.31547 -14.91,-2.3 -2.08753,0.37042 -4.94114,1.15837 -6.67,1.84 -0.29419,0.11599 -0.57185,0.17738 -0.62,0.14 -0.0481,-0.0374 -0.4003,-0.92002 -0.78,-1.97 -4.21814,-11.66428 -8.36465,-22.62378 -9.84,-25.98 -0.95642,-2.17579 -0.45229,-0.60698 1.34,4.16 2.83715,7.54602 3.59929,9.63158 5.28,14.34 1.27521,3.5724 2.65626,7.71158 3.16,9.48 0.13415,0.47094 0.30308,0.87774 0.37,0.91 0.0669,0.0323 0.45527,-0.0639 0.87,-0.22 1.7274,-0.65027 4.54955,-1.42765 6.23,-1.71 3.66877,-0.61643 7.43322,-0.5988 10.42,0.05 1.90629,0.41408 4.36586,1.31907 4.19,1.54 -0.0217,0.0273 -0.71926,-0.0729 -1.55,-0.22 -2.69565,-0.47734 -3.63615,-0.55354 -6.46,-0.54 -2.19089,0.0105 -2.97321,0.0575 -4.21,0.25 -3.78087,0.58845 -6.95181,1.8014 -9.38,3.6 -0.53961,0.3997 -0.75105,0.42398 -0.83,0.09 -0.10044,-0.42496 -2.61661,-8.04614 -3.97,-12.03 -1.68802,-4.96884 -3.05593,-8.84747 -4.15,-11.78 -0.24631,-0.66023 -0.64504,-1.74976 -0.89,-2.41 -1.24421,-3.35354 -3.38832,-8.36286 -3.51,-8.21 -0.0513,0.06443 0.28504,1.03236 1.86,5.38 4.54208,12.5383 8.7688,24.59942 9.96,28.43 0.27066,0.87031 0.54853,1.74002 0.62,1.94 l 0.13,0.36 0.37,-0.27 c 0.86635,-0.63782 2.70384,-1.7183 3.71,-2.18 2.42958,-1.11486 4.56349,-1.74039 7.42,-2.17 1.46631,-0.22052 6.00982,-0.17523 7.65,0.07 1.43721,0.21489 3.61468,0.68051 3.71,0.8 0.0335,0.0419 -1.36041,0.08 -3.09,0.08 -3.33168,1e-5 -4.45309,0.0915 -6.88,0.56 -3.05702,0.59014 -5.58576,1.451 -8.51,2.89 -1.32847,0.65373 -3.61573,2.00528 -4.29,2.54 -0.2055,0.16297 -0.42893,0.28855 -0.5,0.27 -0.0803,-0.021 -0.54888,-1.36021 -1.24,-3.53 -0.61176,-1.92069 -1.37791,-4.27966 -1.7,-5.24 l -1.04,-3.11 c -2.3634,-7.04131 -5.40294,-15.15006 -7.73,-20.62 -0.84067,-1.97608 -1.78981,-3.9599 -1.79,-3.75 -9e-5,0.11553 1.04395,2.91983 2.83,7.62 2.33405,6.14226 5.81812,15.73171 7.31,20.12 1.52053,4.47252 2.89633,9.09848 2.9,9.76 0.003,0.55205 0.10835,0.54942 0.87,-0.01 3.62137,-2.65983 7.82924,-4.72189 11.63,-5.7 2.14045,-0.55082 5.04,-0.93512 5.04,-0.67 0,0.0671 -0.10861,0.15131 -0.24,0.19 -6.28856,1.85182 -12.55896,5.10099 -16.45,8.52 -0.36459,0.32037 -0.6878,0.58 -0.72,0.58 -0.0647,0 -0.17615,-0.30851 -1.22,-3.33 -2.71213,-7.85049 -7.38805,-21.03933 -8.53,-24.06 -0.21557,-0.5702 -0.53915,-1.44982 -0.72,-1.96 -0.18085,-0.51018 -0.71553,-1.90957 -1.18,-3.11 -0.46447,-1.20043 -0.98193,-2.54984 -1.15,-3 -0.52379,-1.40298 -0.39552,-0.66782 0.16,0.93 0.29031,0.83498 0.60007,1.71991 0.69,1.96 0.0899,0.24009 0.31156,0.87981 0.5,1.42 0.52712,1.51108 2.07595,5.89219 2.45,6.93 0.33882,0.94006 1.55728,4.40874 3.76,10.75 2.34072,6.73848 4.40731,12.98945 4.76,14.4 0.13592,0.54356 0.24639,0.82 0.33,0.82 0.0354,0 0.27851,-0.2005 0.54,-0.45 0.8081,-0.77106 2.84986,-2.43039 4.08,-3.31 3.95013,-2.8245 8.17181,-4.86517 12.22,-5.9 2.6446,-0.67603 3.32793,-0.74938 6.59,-0.76 l 2.95,-0.01 0.52,-0.54 0.52,-0.53 0.03,0.29 c 0.0151,0.16092 0.0512,0.3 0.08,0.3 0.0288,0 0.69777,-0.53713 1.49,-1.19 5.23173,-4.31138 10.97109,-7.36926 16.08,-8.57 1.80991,-0.42538 2.50032,-0.51246 4.53,-0.59 1.67842,-0.0641 1.89708,-0.0948 2.06,-0.28 0.37721,-0.42884 0.79395,0.98912 -5.6,-19.12 -1.45137,-4.56461 -2.73178,-8.56286 -2.85,-8.89 -0.65132,-1.80248 0.12574,0.99643 2.38,8.57 0.53307,1.79094 1.38907,4.70614 1.77,6.03 0.0645,0.224 0.30311,1.01973 0.53,1.77 0.22689,0.75027 0.44899,1.51994 0.49,1.7 0.0691,0.30349 0.0582,0.30637 -0.06,0.11 -0.0701,-0.11651 -0.12,-0.2517 -0.12,-0.3 0,-0.0483 -0.4136,-1.40418 -0.92,-3.01 -0.5064,-1.60582 -1.12719,-3.57971 -1.38,-4.39 -3.21573,-10.30682 -6.30949,-19.67397 -6.44,-19.51 z m -12.93,0.13 c -0.18216,-0.01669 -0.96349,0.76364 -1.75,1.75 -1.40091,1.75686 -2.48549,3.69145 -3.54,6.34 -0.6172,1.55016 -1.43842,4.08902 -1.67,5.14 -0.25924,1.17647 0.0638,1.7463 0.38,0.67 0.0926,-0.31511 0.21943,-0.76991 0.28,-1.01 0.67507,-2.67539 2.28128,-6.71663 3.59,-9.01 0.55245,-0.96811 1.66945,-2.55601 2.25,-3.2 0.29756,-0.33008 0.5176,-0.62532 0.49,-0.66 -0.007,-0.0083 -0.0178,-0.01889 -0.03,-0.02 z m 16.16,7.38 c -0.0181,0.01062 -0.006,0.12646 0.05,0.33 0.0508,0.18313 0.11031,0.31475 0.13,0.29 0.0197,-0.02475 -0.002,-0.18162 -0.05,-0.34 -0.0608,-0.201 -0.11186,-0.29062 -0.13,-0.28 z m -41.4,1.62 c -2.0455,-0.02728 -4.1788,0.08519 -6.15,0.35 -0.5375,0.07221 -0.98,0.17442 -0.98,0.22 0,0.04558 1.11028,0.05277 2.46,0.02 4.5503,-0.11048 8.95642,0.34445 12.05,1.24 1.79902,0.5208 3.84349,1.49711 4.73,2.26 0.32,0.27537 0.57,0.37178 0.57,0.22 -1e-5,-0.1857 -0.39482,-0.82761 -0.68,-1.11 -1.03328,-1.02323 -3.82338,-2.20571 -6.36,-2.69 -1.63922,-0.31296 -3.59449,-0.48272 -5.64,-0.51 z m 49.41,25.63 0.13,0.26 c 0.1878,0.36723 0.21123,0.65157 0.06,0.75 -0.0717,0.0466 -0.71333,0.18934 -1.43,0.32 -6.37119,1.16157 -13.38939,4.2168 -18.46,8.03 -0.69277,0.52099 -1.37537,1.02207 -1.51,1.11 -0.2344,0.1531 -0.23843,0.14758 -0.15,-0.06 0.15635,-0.367 1.64823,-2.04112 2.67,-2.99 3.63654,-3.37714 8.29332,-5.62513 13.33,-6.45 0.92557,-0.15158 3.22717,-0.37054 4.59,-0.43 0.49494,-0.0216 0.58015,-0.0527 0.67,-0.28 z"
       id="path14"
       style="fill:#253cec;fill-opacity:1"
       inkscape:connector-curvature="0"
       inkscape:label="path14" />
    <path
       d="m 210.85,109.67 c -19.919,0.13213 -29.734,-37.426 -58.87,-10.09 v -28.8 c 0,-7.0912 5.7088,-12.8 12.8,-12.8 h 53.03 c 7.0912,0 12.8,5.7088 12.8,12.8 v 27.66 c -7.8061,8.1972 -14.183,11.193 -19.76,11.23 z"
       id="path16"
       inkscape:connector-curvature="0"
       style="fill:url(#b)" />
  </g>
</svg>
